<svg xmlns="http://www.w3.org/2000/svg" version="1.1" xmlns:xlink="http://www.w3.org/1999/xlink" xmlns:svgjs="http://svgjs.dev/svgjs" width="1500" height="1500" viewBox="0 0 1500 1500"><g transform="matrix(1,0,0,1,-0.21332335329316265,-0.21332335329350371)"><svg viewBox="0 0 334 334" data-background-color="#471aa0" preserveAspectRatio="xMidYMid meet" height="1500" width="1500" xmlns="http://www.w3.org/2000/svg" xmlns:xlink="http://www.w3.org/1999/xlink"><g id="tight-bounds" transform="matrix(1,0,0,1,0.04749999999998522,0.04750000000001364)"><svg viewBox="0 0 333.90454557049503 333.90454557049503" height="333.90454557049503" width="333.90454557049503"><g><svg></svg></g><g><svg viewBox="0 0 333.90454557049503 333.90454557049503" height="333.90454557049503" width="333.90454557049503"><g><path d="M0 166.952c0-92.205 74.747-166.952 166.952-166.952 92.205 0 166.952 74.747 166.953 166.952 0 92.205-74.747 166.952-166.953 166.953-92.205 0-166.952-74.747-166.952-166.953zM166.952 327.255c88.533 0 160.302-71.77 160.303-160.303 0-88.533-71.77-160.302-160.303-160.302-88.533 0-160.302 71.77-160.302 160.302 0 88.533 71.77 160.302 160.302 160.303z" data-fill-palette-color="tertiary" fill="#ffffff" stroke="transparent"></path><ellipse rx="160.27418187383762" ry="160.27418187383762" cx="166.95227278524752" cy="166.95227278524752" fill="#ffffff" stroke="transparent" stroke-width="0" fill-opacity="1" data-fill-palette-color="tertiary"></ellipse></g><g transform="matrix(1,0,0,1,86.45913197053697,71.17305217166896)"><svg viewBox="0 0 160.9862816294211 191.55844122715712" height="191.55844122715712" width="160.9862816294211"><g><svg viewBox="0 0 160.9862816294211 191.55844122715712" height="191.55844122715712" width="160.9862816294211"><g><svg viewBox="0 0 213.1584412271571 253.63837416828991" height="191.55844122715712" width="160.9862816294211"><g transform="matrix(1,0,0,1,0,156.00117433181433)"><svg viewBox="0 0 213.1584412271571 97.63719983647559" height="97.63719983647559" width="213.1584412271571"><g id="textblocktransform"><svg viewBox="0 0 213.1584412271571 97.63719983647559" height="97.63719983647559" width="213.1584412271571" id="textblock"><g><svg viewBox="0 0 213.1584412271571 97.63719983647559" height="97.63719983647559" width="213.1584412271571"><g transform="matrix(1,0,0,1,0,0)"><svg width="213.1584412271571" viewBox="0.4 -39.65 88.19 40.4" height="97.63719983647559" data-palette-color="url(#f8311908-bf34-4e1e-b23a-36d03e200c14)"></svg></g></svg></g></svg></g></svg></g><g transform="matrix(1,0,0,1,3.8283256044397405,0)"><svg viewBox="0 0 205.50179001827763 132.9513747432185" height="132.9513747432185" width="205.50179001827763"><g><svg xmlns="http://www.w3.org/2000/svg" xmlns:xlink="http://www.w3.org/1999/xlink" version="1.1" x="0" y="0" viewBox="5.114 21.264 87.228 56.43300000000001" enable-background="new 0 0 100 100" xml:space="preserve" height="132.9513747432185" width="205.50179001827763" class="icon-icon-0" data-fill-palette-color="quaternary" id="icon-0"></svg></g></svg></g><g></g></svg></g></svg></g></svg></g></svg></g><defs></defs><mask id="258d8e6e-b8c3-4912-88bf-66e6cbcac581"><g id="SvgjsG5634"><svg viewBox="0 0 333.90454557049503 333.90454557049503" height="333.90454557049503" width="333.90454557049503"><g><svg></svg></g><g><svg viewBox="0 0 333.90454557049503 333.90454557049503" height="333.90454557049503" width="333.90454557049503"><g><path d="M0 166.952c0-92.205 74.747-166.952 166.952-166.952 92.205 0 166.952 74.747 166.953 166.952 0 92.205-74.747 166.952-166.953 166.953-92.205 0-166.952-74.747-166.952-166.953zM166.952 327.255c88.533 0 160.302-71.77 160.303-160.303 0-88.533-71.77-160.302-160.303-160.302-88.533 0-160.302 71.77-160.302 160.302 0 88.533 71.77 160.302 160.302 160.303z" fill="black" stroke="transparent"></path><ellipse rx="160.27418187383762" ry="160.27418187383762" cx="166.95227278524752" cy="166.95227278524752" fill="black" stroke="transparent" stroke-width="0" fill-opacity="1"></ellipse></g><g transform="matrix(1,0,0,1,86.45913197053697,71.17305217166896)"><svg viewBox="0 0 160.9862816294211 191.55844122715712" height="191.55844122715712" width="160.9862816294211"><g><svg viewBox="0 0 160.9862816294211 191.55844122715712" height="191.55844122715712" width="160.9862816294211"><g><svg viewBox="0 0 213.1584412271571 253.63837416828991" height="191.55844122715712" width="160.9862816294211"><g transform="matrix(1,0,0,1,0,156.00117433181433)"><svg viewBox="0 0 213.1584412271571 97.63719983647559" height="97.63719983647559" width="213.1584412271571"><g id="SvgjsG5633"><svg viewBox="0 0 213.1584412271571 97.63719983647559" height="97.63719983647559" width="213.1584412271571" id="SvgjsSvg5632"><g><svg viewBox="0 0 213.1584412271571 97.63719983647559" height="97.63719983647559" width="213.1584412271571"><g transform="matrix(1,0,0,1,0,0)"><svg width="213.1584412271571" viewBox="0.4 -39.65 88.19 40.4" height="97.63719983647559" data-palette-color="url(#f8311908-bf34-4e1e-b23a-36d03e200c14)"><path d="M0.4-34.55L21.95-34.55 21.25-29.55 14.15-29.55 14.15 0 7.8 0 7.8-29.55 0.4-29.55 0.4-34.55ZM24.85-26.45L31-26.45 31 0 24.85 0 24.85-26.45ZM27.9-39.65Q29.55-39.65 30.57-38.6 31.6-37.55 31.6-35.9L31.6-35.9Q31.6-34.3 30.57-33.25 29.55-32.2 27.9-32.2L27.9-32.2Q26.25-32.2 25.22-33.25 24.2-34.3 24.2-35.9L24.2-35.9Q24.2-37.55 25.22-38.6 26.25-39.65 27.9-39.65L27.9-39.65ZM54.14-26.45L48.05-14.15 55.2 0 48.7 0 44.3-10.65 39.99 0 33.64 0 40.8-13.95 34.34-26.45 40.74-26.45 44.39-17.25 47.95-26.45 54.14-26.45ZM57.89-26.45L64.04-26.45 64.04 0 57.89 0 57.89-26.45ZM60.94-39.65Q62.59-39.65 63.62-38.6 64.64-37.55 64.64-35.9L64.64-35.9Q64.64-34.3 63.62-33.25 62.59-32.2 60.94-32.2L60.94-32.2Q59.29-32.2 58.27-33.25 57.24-34.3 57.24-35.9L57.24-35.9Q57.24-37.55 58.27-38.6 59.29-39.65 60.94-39.65L60.94-39.65ZM88.59-13.85Q88.59-13.4 88.44-11.3L88.44-11.3 74.79-11.3Q74.99-7.2 76.22-5.58 77.44-3.95 79.69-3.95L79.69-3.95Q81.24-3.95 82.49-4.48 83.74-5 85.19-6.15L85.19-6.15 87.74-2.65Q84.24 0.75 79.34 0.75L79.34 0.75Q74.14 0.75 71.37-2.85 68.59-6.45 68.59-13L68.59-13Q68.59-19.55 71.24-23.35 73.89-27.15 78.74-27.15L78.74-27.15Q83.39-27.15 85.99-23.78 88.59-20.4 88.59-13.85L88.59-13.85ZM82.59-15.3L82.59-15.65Q82.59-19.4 81.69-21.13 80.79-22.85 78.79-22.85L78.79-22.85Q76.94-22.85 75.97-21.18 74.99-19.5 74.79-15.3L74.79-15.3 82.59-15.3Z" opacity="1" transform="matrix(1,0,0,1,0,0)" fill="white" class="wordmark-text-0" id="SvgjsPath5631"></path></svg></g></svg></g></svg></g></svg></g><g transform="matrix(1,0,0,1,3.8283256044397405,0)"><svg viewBox="0 0 205.50179001827763 132.9513747432185" height="132.9513747432185" width="205.50179001827763"><g><svg xmlns="http://www.w3.org/2000/svg" xmlns:xlink="http://www.w3.org/1999/xlink" version="1.1" x="0" y="0" viewBox="5.114 21.264 87.228 56.43300000000001" enable-background="new 0 0 100 100" xml:space="preserve" height="132.9513747432185" width="205.50179001827763" class="icon-icon-0" data-fill-palette-color="quaternary" id="SvgjsSvg5630"><g fill="white"><polygon points="44.094,68.482 88.713,49.997 84.338,39.434 92.342,39.434 92.342,69.295 42.136,69.295 43.674,68.661  " fill="white"></polygon><polygon points="29.636,38.283 15.857,43.992 15.857,38.283  " fill="white"></polygon></g><g fill="white"><path d="M81.79 38.283L74.737 21.264 33.652 38.283 19.871 43.992 5.114 50.111 8.851 59.137C8.893 59.114 8.937 59.087 8.977 59.074A5.166 5.166 0 0 1 15.729 61.871 5.173 5.173 0 0 1 12.93 68.626C12.883 68.641 12.838 68.652 12.799 68.671L16.536 77.697 39.585 68.145 41.126 67.509 41.543 67.338 86.162 48.852zM33.477 64.547L34.748 64.01 35.393 65.558 34.12 66.102zM34.107 62.46L32.834 62.992 32.191 61.44 33.464 60.901zM32.818 59.351L31.547 59.891 30.902 58.334 32.175 57.802zM31.533 56.249L30.26 56.787 29.615 55.234 30.888 54.694zM30.246 53.146L28.975 53.68 28.33 52.128 29.603 51.595zM28.961 50.039L27.688 50.581 27.046 49.029 28.317 48.491zM27.676 46.937L26.408 47.472 25.758 45.92 27.029 45.382zM25.745 42.283L26.39 43.833 25.117 44.375 24.479 42.818zM36.679 68.669L35.406 69.205 34.949 68.097 34.763 67.647 36.034 67.115 36.402 67.998z" fill="white"></path></g></svg></g></svg></g><g></g></svg></g></svg></g></svg></g></svg></g><defs><mask></mask></defs></svg><rect width="333.90454557049503" height="333.90454557049503" fill="black" stroke="none" visibility="hidden"></rect></g></mask><linearGradient x1="0" x2="1" y1="0.548" y2="0.55" id="f8311908-bf34-4e1e-b23a-36d03e200c14"><stop stop-color="#ff6cab" offset="0"></stop><stop stop-color="#7366ff" offset="1"></stop></linearGradient><rect width="333.905" height="333.905" fill="url(#f8311908-bf34-4e1e-b23a-36d03e200c14)" mask="url(#258d8e6e-b8c3-4912-88bf-66e6cbcac581)" data-fill-palette-color="quaternary"></rect></svg><rect width="333.90454557049503" height="333.90454557049503" fill="none" stroke="none" visibility="hidden"></rect></g></svg></g></svg>